# xmcd CD database file
#
# Track frame offsets:
#	150
#	31596
#	72465
#	110419
#	146749
#	183997
#	242930
#	281387
#
# Disc length: 4215 seconds
#
# Revision: 0
# Processed by: cddbd v1.5.2PL0 Copyright (c) Steve Scherf et al.
# Submitted via: CDex 1.70beta2
#
DISCID=70107508
DTITLE=Adam Lane - Oh Freedom
DYEAR=2009
DGENRE=Jazz
TTITLE0=This Train
TTITLE1=(Keep Your Hand on the Plow) Hold On
TTITLE2=C-Line oman
TTITLE3=Go Down Moses
TTITLE4=Everybody Loves Saturday Night
TTITLE5=Wayfaring Stranger
TTITLE6=Cotton Eyed Joe
TTITLE7=Oh Freedom
EXTD=YEAR: 2009
EXTT0=
EXTT1=
EXTT2=
EXTT3=
EXTT4=
EXTT5=
EXTT6=
EXTT7=
PLAYORDER=
